<?xml version="1.0" encoding="utf-8"?>
<!-- Generator: Adobe Illustrator 21.0.0, SVG Export Plug-In . SVG Version: 6.00 Build 0)  -->
<svg version="1.1" id="Make2D::visible::lines" xmlns="http://www.w3.org/2000/svg" xmlns:xlink="http://www.w3.org/1999/xlink"
	 x="0px" y="0px" viewBox="0 0 482 97" style="enable-background:new 0 0 482 97;" xml:space="preserve">
<style type="text/css">
	.st0{fill:#FFFFFF;}
</style>
<g>
	<polygon class="st0" points="42.2,31.4 42.2,96.3 33.6,96.3 33.6,31.4 1.1,31.4 1.1,22.6 74.8,22.6 74.8,31.4 	"/>
	<polygon class="st0" points="107.9,31.4 94.3,45 94.3,96.3 85.6,96.3 85.6,22.6 94.3,22.6 94.3,32.7 103.5,23.5 105.5,22.6 
		143,22.6 143,31.4 	"/>
	<path class="st0" d="M174.4,96.3c-2.5,0-4.4-2-4.4-4.3V31.4h-16.2v-8.8h20.6c2.3,0,4.3,2,4.3,4.3v60.7h16.2v8.7H174.4z"/>
	<rect x="170" y="0.9" class="st0" width="8.7" height="14.1"/>
	<path class="st0" d="M303.2,96.3V31.4h-26.4L263.2,45v51.3h-8.7V31.4h-26.4L214.5,45v51.3h-8.7V22.6h8.7v10.1l9.2-9.2l2-0.9h33.1
		c2.5,0,4.4,2,4.4,4.3v5.8l9.3-9.2l2-0.9h33.1c2.3,0,4.3,2,4.3,4.3v69.4L303.2,96.3L303.2,96.3z"/>
	<path class="st0" d="M327,96.3c-2.3,0-4.3-2-4.3-4.3V26.9c0-2.3,2-4.3,4.3-4.3h65.1c2.3,0,4.3,2,4.3,4.3v32.5
		c0,1.8-1.5,3.7-3.3,4.2l-61.6,15.5v8.5h64.9v8.7H327z M387.8,31.4h-56.4v38.8l56.4-14.1V31.4z"/>
	<path class="st0" d="M472.3,96.3V78.4l-28.2-14.1L416,78.4v17.9h-8.8V75.7c0-1.5,1.1-3.2,2.5-3.8l24.7-12.4l-24.7-12.4
		c-1.3-0.6-2.5-2.3-2.5-3.8V22.6h8.7v18l28.1,14l28.2-14v-18h8.6v20.6c0,1.5-1,3.2-2.3,3.8l-24.8,12.4l24.8,12.4
		c1.3,0.6,2.3,2.3,2.3,3.8v20.6L472.3,96.3L472.3,96.3z"/>
</g>
</svg>
