<?xml version="1.0" encoding="utf-8"?>
<!-- Generator: Adobe Illustrator 21.0.0, SVG Export Plug-In . SVG Version: 6.00 Build 0)  -->
<svg version="1.0" id="Make2D::visible::lines" xmlns="http://www.w3.org/2000/svg" xmlns:xlink="http://www.w3.org/1999/xlink"
	 x="0px" y="0px" viewBox="0 0 513.8 250" style="enable-background:new 0 0 513.8 250;" xml:space="preserve">
<style type="text/css">
	.st0{fill:#FFFFFF;}
</style>
<g>
	<polygon class="st0" points="57,96.8 57,161.7 48.4,161.7 48.4,96.8 15.9,96.8 15.9,88 89.6,88 89.6,96.8 	"/>
	<polygon class="st0" points="122.7,96.8 109.1,110.4 109.1,161.7 100.4,161.7 100.4,88 109.1,88 109.1,98.1 118.3,88.9 120.3,88 
		157.8,88 157.8,96.8 	"/>
	<path class="st0" d="M189.2,161.7c-2.5,0-4.4-2-4.4-4.3V96.8h-16.2V88h20.6c2.3,0,4.3,2,4.3,4.3V153h16.2v8.7H189.2z"/>
	<rect x="184.8" y="66.3" class="st0" width="8.7" height="14.1"/>
	<path class="st0" d="M318,161.7V96.8h-26.4L278,110.4v51.3h-8.7V96.8h-26.4l-13.6,13.6v51.3h-8.7V88h8.7v10.1l9.2-9.2l2-0.9h33.1
		c2.5,0,4.4,2,4.4,4.3v5.8l9.3-9.2l2-0.9h33.1c2.3,0,4.3,2,4.3,4.3v69.4H318z"/>
	<path class="st0" d="M341.8,161.7c-2.3,0-4.3-2-4.3-4.3V92.3c0-2.3,2-4.3,4.3-4.3h65.1c2.3,0,4.3,2,4.3,4.3v32.5
		c0,1.8-1.5,3.7-3.3,4.2l-61.6,15.5v8.5h64.9v8.7H341.8z M402.6,96.8h-56.4v38.8l56.4-14.1V96.8z"/>
	<path class="st0" d="M487.1,161.7v-17.9l-28.2-14.1l-28.1,14.1v17.9H422v-20.6c0-1.5,1.1-3.2,2.5-3.8l24.7-12.4l-24.7-12.4
		c-1.3-0.6-2.5-2.3-2.5-3.8V88h8.7V106l28.1,14l28.2-14V88h8.6v20.6c0,1.5-1,3.2-2.3,3.8l-24.8,12.4l24.8,12.4
		c1.3,0.6,2.3,2.3,2.3,3.8v20.6H487.1z"/>
</g>
</svg>
